<svg xmlns="http://www.w3.org/2000/svg" width="960" height="560" viewBox="0 0 960 560" role="img" aria-label="3D physics representative curves"><rect width="100%" height="100%" fill="#ffffff"/><g><text x="20" y="36" font-size="14" font-weight="600">E-01 net x vs omega.y</text><line x1="72" y1="230" x2="440" y2="230" stroke="#888"/><line x1="72" y1="54" x2="72" y2="230" stroke="#888"/><polyline points="72.0,230.0 164.0,185.9 256.0,142.0 348.0,98.1 440.0,54.0" fill="none" stroke="#2563eb" stroke-width="2.5"/><circle cx="72.0" cy="230.0" r="3.5" fill="#2563eb"/><circle cx="164.0" cy="185.9" r="3.5" fill="#2563eb"/><circle cx="256.0" cy="142.0" r="3.5" fill="#2563eb"/><circle cx="348.0" cy="98.1" r="3.5" fill="#2563eb"/><circle cx="440.0" cy="54.0" r="3.5" fill="#2563eb"/><text x="256" y="256" text-anchor="middle" font-size="11">omega.y (rad/s)</text><text x="32" y="142" transform="rotate(-90 32 142)" text-anchor="middle" font-size="11">net x (m)</text><text x="72" y="246" font-size="10">-150</text><text x="440" y="246" text-anchor="end" font-size="10">150</text><text x="66" y="230" text-anchor="end" font-size="10">-0.08606</text><text x="66" y="58" text-anchor="end" font-size="10">0.08606</text></g><g><text x="500" y="36" font-size="14" font-weight="600">E-02 pure sidespin delta x</text><line x1="552" y1="230" x2="920" y2="230" stroke="#888"/><line x1="552" y1="54" x2="552" y2="230" stroke="#888"/><polyline points="552.0,230.0 674.7,171.4 797.3,112.9 920.0,54.0" fill="none" stroke="#c2410c" stroke-width="2.5"/><circle cx="552.0" cy="230.0" r="3.5" fill="#c2410c"/><circle cx="674.7" cy="171.4" r="3.5" fill="#c2410c"/><circle cx="797.3" cy="112.9" r="3.5" fill="#c2410c"/><circle cx="920.0" cy="54.0" r="3.5" fill="#c2410c"/><text x="736" y="256" text-anchor="middle" font-size="11">C</text><text x="512" y="142" transform="rotate(-90 512 142)" text-anchor="middle" font-size="11">delta x at net (m)</text><text x="552" y="246" font-size="10">0</text><text x="920" y="246" text-anchor="end" font-size="10">0.0042</text><text x="546" y="230" text-anchor="end" font-size="10">0</text><text x="546" y="58" text-anchor="end" font-size="10">0.12964</text></g><g><text x="20" y="316" font-size="14" font-weight="600">E-05 omega.y carry through table bounce</text><line x1="72" y1="510" x2="920" y2="510" stroke="#888"/><line x1="72" y1="334" x2="72" y2="510" stroke="#888"/><polyline points="72.0,510.0 284.0,466.0 496.0,422.0 708.0,378.0 920.0,334.0" fill="none" stroke="#15803d" stroke-width="2.5"/><polyline points="72.0,510.0 284.0,466.0 496.0,422.0 708.0,378.0 920.0,334.0" fill="none" stroke="#6b7280" stroke-width="2" stroke-dasharray="5 4"/><circle cx="72.0" cy="510.0" r="3.5" fill="#15803d"/><circle cx="284.0" cy="466.0" r="3.5" fill="#15803d"/><circle cx="496.0" cy="422.0" r="3.5" fill="#15803d"/><circle cx="708.0" cy="378.0" r="3.5" fill="#15803d"/><circle cx="920.0" cy="334.0" r="3.5" fill="#15803d"/><text x="496" y="536" text-anchor="middle" font-size="11">incoming omega.y (rad/s)</text><text x="32" y="422" transform="rotate(-90 32 422)" text-anchor="middle" font-size="11">bounce omega.y (rad/s)</text><text x="72" y="526" font-size="10">-200</text><text x="920" y="526" text-anchor="end" font-size="10">200</text><text x="66" y="510" text-anchor="end" font-size="10">-200</text><text x="66" y="338" text-anchor="end" font-size="10">200</text></g></svg>
